<?xml version="1.0" ?><!DOCTYPE svg  PUBLIC '-//W3C//DTD SVG 1.1//EN'  'http://www.w3.org/Graphics/SVG/1.1/DTD/svg11.dtd'><svg height="512px" style="enable-background:new 0 0 512 512;" version="1.1" viewBox="0 0 512 512" width="512px" xml:space="preserve" xmlns="http://www.w3.org/2000/svg" xmlns:xlink="http://www.w3.org/1999/xlink"><g id="_x37_4-outlook"><g><g><path d="M479.689,121.431H270.912c-8.23,0-14.91,6.705-14.91,14.958c0,8.251,6.68,14.95,14.91,14.95     h165.322l-91.621,71.447l-65.709-41.901L262.92,206.13l74.559,47.548c2.418,1.56,5.221,2.332,7.996,2.332     c3.221,0,6.473-1.045,9.16-3.14l110.143-85.924v193.736H270.912c-8.23,0-14.91,6.699-14.91,14.946     c0,8.257,6.68,14.959,14.91,14.959h208.777c8.234,0,14.914-6.702,14.914-14.959v-239.24     C494.604,128.136,487.924,121.431,479.689,121.431L479.689,121.431z M479.689,121.431" style="fill:#1B80E4;"/><path d="M280.428,35.153c-3.404-2.841-7.967-4.069-12.26-3.168L29.566,76.84     c-7.068,1.322-12.169,7.481-12.169,14.687v328.966c0,7.177,5.101,13.364,12.169,14.688l238.602,44.856     c0.893,0.177,1.818,0.271,2.744,0.271c3.459,0,6.828-1.199,9.516-3.445c3.432-2.836,5.393-7.083,5.393-11.512V46.671     C285.82,42.213,283.859,37.995,280.428,35.153L280.428,35.153z M280.428,35.153" style="fill:#2299F8;"/><path d="M151.609,360.683c-41.1,0-74.563-40.253-74.563-89.72c0-49.462,33.464-89.719,74.563-89.719     c41.1,0,74.565,40.257,74.565,89.719C226.174,320.43,192.709,360.683,151.609,360.683L151.609,360.683z M151.609,211.153     c-24.665,0-44.736,26.824-44.736,59.81c0,32.988,20.071,59.813,44.736,59.813c24.666,0,44.743-26.824,44.743-59.813     C196.352,237.978,176.275,211.153,151.609,211.153L151.609,211.153z M151.609,211.153" style="fill:#FCFCFC;"/></g></g></g><g id="Layer_1"/></svg>